<?xml version="1.0" encoding="UTF-8" standalone="no"?>
<svg xmlns="http://www.w3.org/2000/svg" width="1254" height="1254" viewBox="0 0 1254 1254">
  <defs>
    <linearGradient id="bg" x1="0" y1="1" x2="1" y2="0">
      <stop offset="0%" stop-color="#08dff0"/>
      <stop offset="34%" stop-color="#087ff5"/>
      <stop offset="72%" stop-color="#123fe3"/>
      <stop offset="100%" stop-color="#071dcc"/>
    </linearGradient>

    <radialGradient id="cyanGlow" cx="15%" cy="82%" r="70%">
      <stop offset="0%" stop-color="#00e8ed" stop-opacity=".88"/>
      <stop offset="55%" stop-color="#00aaf5" stop-opacity=".30"/>
      <stop offset="100%" stop-color="#00aaf5" stop-opacity="0"/>
    </radialGradient>

    <radialGradient id="blueGlow" cx="58%" cy="55%" r="58%">
      <stop offset="0%" stop-color="#168cff" stop-opacity=".42"/>
      <stop offset="65%" stop-color="#0c55ef" stop-opacity=".12"/>
      <stop offset="100%" stop-color="#0826d5" stop-opacity="0"/>
    </radialGradient>

    <linearGradient id="logoWhite" x1="0" y1="0" x2="0.85" y2="1">
      <stop offset="0%" stop-color="#ffffff"/>
      <stop offset="75%" stop-color="#fbfcff"/>
      <stop offset="100%" stop-color="#e9efff"/>
    </linearGradient>

    <filter id="logoShadow" x="-30%" y="-30%" width="160%" height="160%">
      <feDropShadow dx="0" dy="9" stdDeviation="10" flood-color="#062acb" flood-opacity=".45"/>
    </filter>

    <clipPath id="roundedClip">
      <rect x="28" y="28" width="1198" height="1198"
            rx="245" ry="245"/>
    </clipPath>
  </defs>

  <g clip-path="url(#roundedClip)">
    <rect x="28" y="28" width="1198" height="1198"
          fill="url(#bg)"/>
    <rect x="28" y="28" width="1198" height="1198"
          fill="url(#cyanGlow)"/>
    <rect x="28" y="28" width="1198" height="1198"
          fill="url(#blueGlow)"/>

    <g transform="translate(0,0)">
      <path d="M 28 375 L 730 105" stroke="white" stroke-width="18" stroke-linecap="round" opacity="0.36"/>
<path d="M 28 500 L 560 245" stroke="white" stroke-width="13" stroke-linecap="round" opacity="0.25"/>
<path d="M 28 615 L 410 410" stroke="white" stroke-width="11" stroke-linecap="round" opacity="0.18"/>
<path d="M 28 805 L 455 565" stroke="white" stroke-width="13" stroke-linecap="round" opacity="0.18"/>
<path d="M 30 1100 L 610 735" stroke="white" stroke-width="12" stroke-linecap="round" opacity="0.22"/>
<path d="M 440 1218 L 815 995" stroke="white" stroke-width="10" stroke-linecap="round" opacity="0.14"/>
    </g>

    <g>
      <path d="M 1047.0,379.0 L 1025.0,354.0 L 992.0,330.0 L 955.0,314.0 L 913.0,305.0 L 886.0,303.0 L 469.0,304.0 L 455.0,310.0 L 448.0,317.0 L 307.0,510.0 L 307.0,514.0 L 311.0,514.0 L 370.0,483.0 L 420.0,462.0 L 467.0,447.0 L 518.0,436.0 L 583.0,430.0 L 847.0,429.0 L 862.0,431.0 L 879.0,437.0 L 892.0,446.0 L 903.0,459.0 L 908.0,469.0 L 912.0,485.0 L 912.0,501.0 L 906.0,524.0 L 895.0,545.0 L 873.0,570.0 L 849.0,587.0 L 813.0,602.0 L 768.0,610.0 L 600.0,610.0 L 599.0,600.0 L 656.0,506.0 L 657.0,500.0 L 489.0,501.0 L 483.0,503.0 L 475.0,510.0 L 208.0,941.0 L 202.0,951.0 L 202.0,956.0 L 376.0,956.0 L 385.0,954.0 L 399.0,947.0 L 412.0,934.0 L 534.0,731.0 L 674.0,731.0 L 760.0,855.0 L 819.0,944.0 L 826.0,952.0 L 832.0,955.0 L 1013.0,956.0 L 1013.0,952.0 L 839.0,728.0 L 839.0,719.0 L 873.0,713.0 L 900.0,706.0 L 935.0,693.0 L 962.0,679.0 L 979.0,668.0 L 1004.0,648.0 L 1027.0,624.0 L 1045.0,599.0 L 1058.0,576.0 L 1066.0,557.0 L 1074.0,532.0 L 1079.0,502.0 L 1079.0,467.0 L 1074.0,437.0 L 1066.0,413.0 Z" fill="url(#logoWhite)" filter="url(#logoShadow)"/>
    </g>
  </g>
</svg>
